<svg viewBox="0 0 1024 1024" xmlns="http://www.w3.org/2000/svg"><path d="m754.45 632.43h-536.76c-44.2-.62-80.16-35.79-81.74-79.97-1.64-45.79 34.14-84.24 79.93-85.88a237.647 237.647 0 0 1 -10.15-68.91c-.56-110.62 76.41-206.52 184.52-229.92 97.34-20.32 196.71 24.32 246.17 110.59a235.964 235.964 0 0 1 32.11 114.65 131.989 131.989 0 0 1 85.93-31.74c74.34.55 134.17 61.25 133.65 135.59.51 74.34-59.31 135.03-133.65 135.59z" fill="#fff"/><path d="m370.22 861.12c-2.75 0-5.54-.48-8.25-1.51-12.08-4.56-18.18-18.05-13.62-30.14l50.47-133.73c4.56-12.09 18.05-18.2 30.14-13.62 12.08 4.56 18.18 18.05 13.62 30.14l-50.47 133.73c-3.54 9.36-12.43 15.13-21.88 15.13zm335.19 0c-2.75 0-5.53-.48-8.25-1.51-12.08-4.56-18.18-18.05-13.62-30.14l50.47-133.73c4.56-12.09 18.04-18.2 30.14-13.62 12.08 4.56 18.18 18.05 13.62 30.14l-50.47 133.73c-3.54 9.36-12.43 15.13-21.88 15.13zm-502.78 0c-2.75 0-5.53-.48-8.25-1.51-12.08-4.56-18.18-18.05-13.62-30.14l50.47-133.73c4.56-12.09 18.05-18.2 30.14-13.62 12.08 4.56 18.18 18.05 13.62 30.14l-50.47 133.73c-3.54 9.36-12.43 15.13-21.88 15.13zm335.19 0c-2.75 0-5.53-.48-8.25-1.51-12.08-4.56-18.18-18.05-13.62-30.14l50.47-133.73c4.56-12.09 18.05-18.2 30.14-13.62 12.08 4.56 18.18 18.05 13.62 30.14l-50.47 133.73c-3.54 9.36-12.43 15.13-21.88 15.13z" fill="#00cdee"/></svg>