<svg viewBox="0 0 1024 1024" xmlns="http://www.w3.org/2000/svg"><path d="m741.6 581.68h-508.31c-41.86-.59-75.91-33.9-77.41-75.74-1.56-43.36 32.33-79.77 75.69-81.33a225.393 225.393 0 0 1 -9.62-65.26c-.53-104.75 72.36-195.57 174.74-217.74 92.19-19.24 186.28 23.03 233.12 104.73 19.25 33 29.72 70.38 30.41 108.58a125.044 125.044 0 0 1 81.37-30.06c70.4.52 127.06 58 126.57 128.41.48 70.4-56.17 127.88-126.57 128.41z" fill="#fff"/><path d="m538.66 619.98c6.03 3.29 7.11 6.53 4.31 12.9-9.65 21.95-19.31 43.91-28.96 65.86-.31.7-.6 1.41-1.08 2.51h2.95c18.94 0 37.88.03 56.82-.03 3.46-.01 6.37.79 8.18 3.96 1.86 3.28 1.02 6.26-.91 9.25-35.92 55.88-71.8 111.78-107.69 167.67-2.51 3.91-5.58 5.48-9.02 4.67-4.56-1.06-6.99-5.31-5.78-10.31 1.57-6.48 3.24-12.94 4.85-19.42 6.96-28 13.9-56.01 20.92-84 .54-2.15-.12-2.37-2.03-2.36-22.67.06-45.35.05-68.02.03-5.35 0-9.06-3.77-8.45-8.6.16-1.27.65-2.51 1.12-3.72 16.58-42.87 33.18-85.74 49.78-128.61.38-.97.84-1.91 1.11-2.91.91-3.42 3.03-5.69 6.33-6.9h75.6z" fill="#b1b1b1"/></svg>