<svg viewBox="0 0 1024 1024" xmlns="http://www.w3.org/2000/svg"><path d="m816.96 528.58c0 49.76-21.51 94.48-55.66 125.35-24.88-58.93-83.06-100.56-151.16-101.02h-.09c-17.68 0-35.08 2.9-51.54 8.42-5.99-23.95-15.25-46.86-27.69-68.19-9.26-16.09-19.92-30.87-31.99-44.15 28.34-53.22 84.47-89.43 149.1-89.43 93.35 0 169.03 75.68 169.03 169.03zm159.28 23.37h-84.52c-12.92 0-23.39-10.47-23.39-23.39s10.47-23.39 23.39-23.39h84.52c12.92 0 23.39 10.47 23.39 23.39s-10.47 23.39-23.39 23.39zm-155.92-172.37c-5.98 0-11.97-2.28-16.53-6.85-9.13-9.13-9.13-23.94 0-33.07l59.77-59.77c9.13-9.13 23.94-9.13 33.07 0s9.13 23.94 0 33.07l-59.77 59.77c-4.56 4.57-10.55 6.85-16.53 6.85zm-344.75 0c-5.98 0-11.97-2.28-16.53-6.85l-59.77-59.77c-9.13-9.13-9.13-23.94 0-33.07s23.94-9.13 33.07 0l59.77 59.77c9.13 9.13 9.13 23.94 0 33.07-4.56 4.57-10.55 6.85-16.53 6.85zm404.51 404.52c-5.98 0-11.97-2.28-16.53-6.85l-59.77-59.77c-9.13-9.13-9.13-23.94 0-33.07s23.94-9.13 33.07 0l59.77 59.77c9.13 9.13 9.13 23.94 0 33.07-4.56 4.57-10.55 6.85-16.53 6.85zm-232.14-475.92c-12.92 0-23.39-10.47-23.39-23.39v-84.53c0-12.92 10.47-23.39 23.39-23.39s23.39 10.47 23.39 23.39v84.53c0 12.92-10.47 23.39-23.39 23.39z" fill="#ffd500"/><path d="m610.15 847.12h-508.31c-41.86-.59-75.91-33.9-77.41-75.74-1.56-43.36 32.33-79.77 75.69-81.33a225.393 225.393 0 0 1 -9.62-65.26c-.53-104.75 72.36-195.57 174.74-217.74 92.19-19.24 186.28 23.03 233.12 104.73 19.25 33 29.72 70.38 30.41 108.58a125.044 125.044 0 0 1 81.37-30.06c70.4.52 127.06 58 126.57 128.41.48 70.4-56.17 127.88-126.57 128.41z" fill="#fff"/></svg>