<svg viewBox="0 0 1024 1024" xmlns="http://www.w3.org/2000/svg"><g fill="#fff"><path d="m754.45 576.41h-536.76c-44.2-.62-80.16-35.79-81.74-79.97-1.64-45.79 34.14-84.24 79.93-85.88a237.647 237.647 0 0 1 -10.15-68.91c-.56-110.62 76.41-206.52 184.52-229.92 97.34-20.32 196.71 24.32 246.17 110.59a235.964 235.964 0 0 1 32.11 114.65 131.989 131.989 0 0 1 85.93-31.74c74.34.55 134.17 61.25 133.65 135.59.51 74.34-59.31 135.03-133.65 135.59z"/><path d="m451.9 799.85c-2.75 0-5.54-.48-8.26-1.51-12.09-4.56-18.18-18.05-13.62-30.14l50.47-133.73c4.57-12.09 18.06-18.18 30.14-13.62 12.09 4.56 18.18 18.05 13.62 30.14l-50.47 133.73c-3.54 9.36-12.43 15.13-21.88 15.13zm-136.29-82.94c-2.75 0-5.54-.48-8.26-1.51-12.08-4.56-18.18-18.05-13.62-30.13l19.16-50.8c4.57-12.09 18.07-18.18 30.14-13.62 12.08 4.56 18.18 18.05 13.62 30.13l-19.16 50.8c-3.54 9.37-12.43 15.14-21.88 15.14zm334.86.86c-2.75 0-5.54-.48-8.26-1.51-12.09-4.56-18.18-18.06-13.62-30.14l19.5-51.65c4.57-12.08 18.08-18.17 30.14-13.62 12.09 4.56 18.18 18.06 13.62 30.14l-19.5 51.65c-3.54 9.36-12.43 15.13-21.88 15.13zm-18.6 37.44 27.46 4.82-6.61 27.08 9.56 26.19-26.76 7.81-17.9 21.37-20.14-19.26-27.46-4.82 6.61-27.08-9.56-26.18 26.76-7.82 17.9-21.37zm-337.5 0 27.46 4.82-6.61 27.08 9.56 26.19-26.76 7.81-17.9 21.37-20.15-19.26-27.45-4.82 6.6-27.08-9.55-26.18 26.75-7.82 17.9-21.37zm138.42 74.66 27.46 4.82-6.61 27.08 9.56 26.18-26.76 7.82-17.9 21.37-20.14-19.27-27.46-4.81 6.61-27.08-9.56-26.19 26.76-7.81 17.9-21.37z"/></g></svg>