<svg viewBox="0 0 1024 1024" xmlns="http://www.w3.org/2000/svg"><path d="m891.64 484.2c-12.35 44.81-42.37 83.34-83.44 106.36-28.25-32.08-69.59-52.57-115.71-52.85h-.09c-20.11 0-39.94 3.93-58.37 11.51-5.52-26.66-15.25-52.38-29-75.96-14.5-25.35-33.02-47.33-54.44-65.39 8.23-47.89 36.2-90.27 76.61-116.65 14.12-9.17 31.81 4.21 27.32 20.39-6.36 22.54-7.02 47.05-.75 71.75 16.37 64.26 77.55 108.41 143.68 103.55 24.79-1.78 47.33-9.82 66.41-22.36 14.03-9.26 32.27 3.46 27.78 19.64zm-122.62-252.18 10.5 1.42c4.27.58 5.23 6.33 1.37 8.26l-9.48 4.74a34.306 34.306 0 0 0 -18.65 26.09l-1.42 10.5c-.58 4.27-6.33 5.23-8.26 1.37l-4.74-9.48a34.306 34.306 0 0 0 -26.09-18.65l-10.5-1.42c-4.27-.58-5.23-6.33-1.37-8.26l9.48-4.74a34.306 34.306 0 0 0 18.65-26.09l1.42-10.5c.58-4.27 6.33-5.23 8.26-1.37l4.74 9.48a34.306 34.306 0 0 0 26.09 18.65zm123.81 72.78 17.98 2.43c7.31.99 8.95 10.83 2.35 14.13l-16.23 8.12a58.761 58.761 0 0 0 -31.93 44.66l-2.43 17.98c-.99 7.31-10.83 8.95-14.13 2.35l-8.12-16.23a58.761 58.761 0 0 0 -44.66-31.93l-17.98-2.43c-7.31-.99-8.95-10.83-2.35-14.13l16.23-8.12a58.761 58.761 0 0 0 31.93-44.66l2.43-17.98c.99-7.31 10.83-8.95 14.13-2.35l8.12 16.23a58.761 58.761 0 0 0 44.66 31.93z" fill="#b1b1b1"/><path d="m692.47 822.53h-508.31c-41.86-.59-75.91-33.9-77.41-75.74-1.56-43.36 32.33-79.77 75.69-81.33a225.393 225.393 0 0 1 -9.62-65.26c-.53-104.75 72.36-195.57 174.74-217.74 92.19-19.24 186.28 23.03 233.12 104.73 19.25 33 29.72 70.38 30.41 108.58a125.044 125.044 0 0 1 81.37-30.06c70.4.52 127.06 58 126.57 128.41.48 70.4-56.17 127.88-126.57 128.41z" fill="#fff"/></svg>