<svg viewBox="0 0 1024 1024" xmlns="http://www.w3.org/2000/svg"><path d="m746.1 681.74c-46.74 100.69-149.24 170.32-267.86 169.19-153.35-1.45-281.56-124.61-288.78-277.8-5.91-125.44 67.35-234.48 174.08-281.51 25.67-11.31 51.25 15.59 39.35 40.99-16.56 35.35-24.45 75.56-20.87 117.91 9.32 110.28 98.03 199.72 208.23 209.89 41.32 3.81 80.67-3.26 115.5-18.7 25.65-11.37 52.17 14.57 40.35 40.02zm-132.89-448.78 16.9 5.21c6.87 2.12 6.87 11.85 0 13.97l-16.9 5.21a57.253 57.253 0 0 0 -37.84 37.84l-5.21 16.9c-2.12 6.87-11.85 6.87-13.97 0l-5.21-16.9a57.253 57.253 0 0 0 -37.84-37.84l-16.9-5.21c-6.87-2.12-6.87-11.85 0-13.97l16.9-5.21a57.253 57.253 0 0 0 37.84-37.84l5.21-16.9c2.12-6.87 11.85-6.87 13.97 0l5.21 16.9a57.253 57.253 0 0 0 37.84 37.84zm183.9 153.71 28.94 8.92c11.77 3.63 11.77 20.29 0 23.91l-28.94 8.92a98.022 98.022 0 0 0 -64.79 64.79l-8.92 28.94c-3.63 11.77-20.29 11.77-23.91 0l-8.92-28.94a98.022 98.022 0 0 0 -64.79-64.79l-28.94-8.92c-11.77-3.63-11.77-20.29 0-23.91l28.94-8.92a98.022 98.022 0 0 0 64.79-64.79l8.92-28.94c3.63-11.77 20.29-11.77 23.91 0l8.92 28.94a98.022 98.022 0 0 0 64.79 64.79z" fill="#fff"/></svg>