<svg viewBox="0 0 1024 1024" xmlns="http://www.w3.org/2000/svg"><g fill="#fff"><path d="m783.55 650.69h-601.19c-49.51-.69-89.78-40.09-91.56-89.57-1.84-51.28 38.24-94.35 89.52-96.19a266.248 266.248 0 0 1 -11.37-77.18c-.62-123.89 85.58-231.31 206.67-257.52 109.03-22.75 220.32 27.24 275.72 123.87a264.232 264.232 0 0 1 35.96 128.42 147.834 147.834 0 0 1 96.24-35.55c83.27.62 150.28 68.6 149.7 151.87.57 83.26-66.43 151.24-149.7 151.87z"/><path d="m767.98 775.11h-574.28c-12.92 0-23.39-10.47-23.39-23.39s10.47-23.39 23.39-23.39h574.28c12.92 0 23.39 10.47 23.39 23.39s-10.47 23.39-23.39 23.39zm-42.84 124.11h-488.61c-12.92 0-23.39-10.47-23.39-23.39s10.47-23.39 23.39-23.39h488.61c12.92 0 23.39 10.47 23.39 23.39s-10.47 23.39-23.39 23.39z"/></g></svg>