<svg viewBox="0 0 1024 1024" xmlns="http://www.w3.org/2000/svg"><path d="m783.55 609.26h-601.19c-49.51-.69-89.78-40.09-91.56-89.57-1.84-51.28 38.24-94.35 89.52-96.19a266.248 266.248 0 0 1 -11.37-77.18c-.62-123.89 85.58-231.31 206.67-257.52 109.03-22.75 220.32 27.24 275.72 123.87a264.232 264.232 0 0 1 35.96 128.42 147.834 147.834 0 0 1 96.24-35.55c83.27.62 150.28 68.6 149.7 151.87.57 83.26-66.43 151.24-149.7 151.87z" fill="#fff"/><path d="m384.89 940.65c-9.4 0-18.09-5.69-21.69-14.68-.35-.86-37.56-90.56-106.15-90.56-12.92 0-23.39-10.47-23.39-23.39s10.47-23.39 23.39-23.39c45.5 0 80.08 23.65 104.47 49.95v-149.28c0-12.92 10.47-23.39 23.39-23.39s23.39 10.47 23.39 23.39v227.96c0 11.21-7.95 20.84-18.95 22.96-1.48.29-2.97.42-4.44.42zm204.33-.02c-1.48 0-2.98-.14-4.48-.43-10.98-2.15-18.91-11.74-18.91-22.93v-227.96c0-12.92 10.47-23.39 23.39-23.39s23.39 10.47 23.39 23.39v149.28c24.39-26.31 58.97-49.95 104.47-49.95 12.92 0 23.39 10.47 23.39 23.39s-10.47 23.39-23.39 23.39c-68.58 0-105.8 89.7-106.17 90.6-3.63 8.95-12.31 14.62-21.68 14.62zm-102.17-82.77c-12.92 0-23.39-10.47-23.39-23.39v-145.16c0-12.92 10.47-23.39 23.39-23.39s23.39 10.47 23.39 23.39v145.16c0 12.92-10.47 23.39-23.39 23.39z" fill="#00cdee"/></svg>