<svg viewBox="0 0 1024 1024" xmlns="http://www.w3.org/2000/svg"><path d="m517.6 158.4c14.84 5.66 20.21 16.51 19.66 32.15-.78 22.47-.2 44.98-.2 68.79 3.76-2.76 6.65-4.84 9.5-6.98 17.12-12.82 34.13-25.79 51.39-38.42 10.18-7.45 23.49-6.4 32.29 1.92 8.62 8.16 10.35 21.5 4.13 31.59-2.35 3.81-5.72 6.53-9.25 9.17-27.8 20.8-55.57 41.65-83.38 62.45-2.82 2.11-4.83 4.07-4.81 8.29.21 45.35.13 90.7.14 136.05 0 .87.12 1.74.18 2.62 2.58.65 4-1.2 5.66-2.2 37.84-22.65 75.62-45.38 113.5-67.95 3.51-2.09 5.02-4.45 5.42-8.55 3.37-34.34 7.09-68.64 10.47-102.98 1.46-14.86 9.28-24.85 21.58-26.52 17.62-2.4 31.11 11.38 29.12 29.42-2.65 24-5.05 48.02-7.57 72.12 3.1-.33 5.18-2.28 7.49-3.66 18.73-11.19 37.38-22.52 56.13-33.69 13.63-8.12 28.56-5.04 36.18 7.29 7.81 12.63 3.65 27.61-10.21 36.02-18.65 11.32-37.41 22.46-56.11 33.7-2.14 1.29-4.21 2.69-7.15 4.59 19.11 7.8 37.43 15.27 55.75 22.75 4.03 1.65 8.09 3.24 12.1 4.95 14.55 6.21 20.93 20.1 15.46 33.55-5.45 13.4-19.98 19.03-34.54 13.16-32.75-13.23-65.47-26.55-98.17-39.91-3.07-1.25-5.5-1.92-8.84.1-39.86 24.19-79.84 48.17-119.79 72.21-.55.33-1.03.8-2.24 1.75 9.68 5.87 18.97 11.56 28.31 17.18 30.9 18.59 61.84 37.09 92.66 55.81 3.52 2.14 6.25 2.27 10.06.7 33.07-13.66 66.21-27.15 99.41-40.5 12.49-5.02 25.43-.61 31.85 10.28 6.3 10.68 3.8 24.51-5.85 32.41-3.07 2.51-6.69 3.97-10.31 5.44-21.67 8.82-43.33 17.65-65.09 26.51 1.23 2.71 3.85 3.34 5.9 4.58 19.45 11.78 39.03 23.34 58.4 35.25 9.64 5.93 14.04 16.12 11.65 26.65-2.41 10.61-9.23 17.22-19.89 19.64-7.18 1.63-13.57-.53-19.68-4.22-18.87-11.4-37.8-22.72-56.71-34.07-1.96-1.17-3.94-2.29-6.76-3.92 1.98 19.6 3.87 38.39 5.79 57.17.56 5.49 1.25 10.97 1.82 16.46 1.46 14.23-7.81 26.78-21.07 28.59-14.41 1.96-26.82-6.57-28.83-21.24-2.7-19.82-4.3-39.79-6.38-59.69-1.74-16.7-3.55-33.4-5.19-50.11-.27-2.74-1.1-4.47-3.61-5.97-39.43-23.55-78.79-47.23-118.18-70.86-.54-.33-1.21-.43-1.88-.66-1.64 1.62-.83 3.54-.83 5.22-.06 44.2.03 88.4-.16 132.6-.02 4.45 1.41 7.09 4.89 9.66 28.44 21.1 56.79 42.32 85.07 63.64 10.64 8.02 14 20.01 9.17 31.15-4.62 10.66-15.69 16.5-27.68 14.69-5.2-.79-9.36-3.57-13.42-6.63-17.1-12.85-34.21-25.68-51.33-38.51-1.81-1.35-3.68-2.62-5.61-3.99-1.78 2-.92 4.13-.93 6.02-.08 22.33 0 44.66-.07 66.99-.05 15.86-10.45 27.04-25.02 27.12-14.54.07-25.18-11.04-25.28-26.86-.14-24.11-.04-48.23-.04-72.27-2.7-1.02-3.75.95-5.07 1.93-18.43 13.75-36.74 27.66-55.25 41.31-10.06 7.42-22.83 6.96-31.87-.65-8.44-7.1-11.21-19.33-6.73-29.48 2.22-5.02 6.03-8.58 10.32-11.79 27.99-20.94 55.93-41.95 83.95-62.85 2.91-2.17 4.77-4.21 4.76-8.32-.17-45.35-.11-90.7-.12-136.05 0-.85-.07-1.7-.17-3.84-3.85 2.36-6.87 4.23-9.91 6.06-35.83 21.52-71.6 43.16-107.6 64.4-5.26 3.1-7 6.72-7.55 12.47-3.37 35.03-6.98 70.04-10.81 105.03-1.54 14.01-13.22 23.64-26.5 22.69-14.11-1.01-24.5-12.43-23.38-27.18 1.59-20.87 4.1-41.66 6.19-62.49.41-4.1.73-8.22 1.1-12.35-2.97-.54-4.56 1.43-6.44 2.56-19.73 11.76-39.32 23.76-59.17 35.31-11.04 6.42-23.83 3.84-31.8-5.62-7.61-9.02-7.82-22.53-.5-31.86 2.46-3.14 5.68-5.31 9.06-7.33 18.72-11.19 37.44-22.4 56.11-33.68 2.11-1.28 4.66-2.06 6.19-4.65-22.8-9.29-45.58-18.41-68.23-27.85-18.58-7.74-22.28-30.88-6.98-43.17 8.33-6.69 17.51-6.98 27.26-2.99 32.69 13.39 65.45 26.59 98.14 39.98 3.17 1.3 5.57 1.53 8.81-.43 39.49-23.91 79.11-47.6 118.69-71.36.93-.56 1.79-1.22 2.77-1.9-1.34-2.47-3.68-3.09-5.55-4.21-38.17-22.99-76.42-45.86-114.53-68.94-3.93-2.38-7-2.57-11.28-.79-32.42 13.43-64.96 26.58-97.5 39.72-12.41 5.01-24.26 1.91-31.47-7.94-9.76-13.34-4.44-31.7 11.4-38.32 20.32-8.48 40.78-16.62 61.17-24.92 2.33-.95 4.64-1.97 7.89-3.35-5.37-3.29-10.12-6.24-14.91-9.13-16.71-10.08-33.51-20.03-50.14-30.25-9.72-5.98-13.95-15.66-11.73-26.54 2.2-10.78 9.1-17.26 19.65-19.81 7.14-1.73 13.59.43 19.7 4.12 18.88 11.39 37.8 22.72 56.71 34.05 1.9 1.14 3.87 2.17 6.89 3.86-1.91-18.78-3.7-36.32-5.46-53.87-.76-7.55-1.84-15.1-2.11-22.67-.51-14.24 9.63-25.24 23.66-26.27 12.98-.95 24.72 8.53 26.24 22.15 3.85 34.52 7.45 69.07 10.75 103.65.64 6.68 2.41 11 8.7 14.69 37.05 21.73 73.74 44.05 110.58 66.13 1.67 1 3.11 2.73 6.05 2.31v-5.94c0-43.74-.08-87.48.12-131.22.02-4.71-1.56-7.46-5.23-10.18-28.43-21.12-56.82-42.3-85.01-63.75-15.93-12.12-14.26-34.88 3.03-43.28 9.51-4.62 18.73-3.42 27.23 2.95 18.04 13.51 36.08 27.01 54.13 40.51 1.45 1.08 2.95 2.1 4.37 3.1 2.29-1.46 1.3-3.5 1.3-5.15.08-21.18.56-42.37-.12-63.53-.49-15.48 5.32-25.91 20.01-31.15h11.05z" fill="#fff"/></svg>