<svg viewBox="0 0 1024 1024" xmlns="http://www.w3.org/2000/svg"><g fill="#ffd500"><circle cx="512" cy="512" r="174.2"/><path d="m850.28 535.39h-87.1c-12.92 0-23.39-10.47-23.39-23.39s10.47-23.39 23.39-23.39h87.1c12.92 0 23.39 10.47 23.39 23.39s-10.47 23.39-23.39 23.39zm-589.46 0h-87.1c-12.92 0-23.39-10.47-23.39-23.39s10.47-23.39 23.39-23.39h87.1c12.92 0 23.39 10.47 23.39 23.39s-10.47 23.39-23.39 23.39zm428.79-177.62c-5.98 0-11.97-2.28-16.53-6.85-9.13-9.13-9.13-23.94 0-33.07l61.59-61.59c9.13-9.13 23.94-9.13 33.07 0s9.13 23.94 0 33.07l-61.59 61.59c-4.56 4.57-10.55 6.85-16.53 6.85zm-416.81 416.82c-5.98 0-11.97-2.28-16.53-6.85-9.13-9.13-9.13-23.94 0-33.07l61.59-61.59c9.13-9.13 23.94-9.13 33.07 0s9.13 23.94 0 33.07l-61.59 61.59c-4.56 4.57-10.55 6.85-16.53 6.85zm61.59-416.82c-5.98 0-11.97-2.28-16.53-6.85l-61.59-61.59c-9.13-9.13-9.13-23.94 0-33.07s23.94-9.13 33.07 0l61.59 61.59c9.13 9.13 9.13 23.94 0 33.07-4.56 4.57-10.55 6.85-16.53 6.85zm416.81 416.82c-5.98 0-11.97-2.28-16.53-6.85l-61.59-61.59c-9.13-9.13-9.13-23.94 0-33.07s23.94-9.13 33.07 0l61.59 61.59c9.13 9.13 9.13 23.94 0 33.07-4.56 4.57-10.55 6.85-16.53 6.85zm-239.2-490.38c-12.92 0-23.39-10.47-23.39-23.39v-87.1c0-12.92 10.47-23.39 23.39-23.39s23.39 10.47 23.39 23.39v87.1c0 12.92-10.47 23.39-23.39 23.39zm0 589.46c-12.92 0-23.39-10.47-23.39-23.39v-87.1c0-12.92 10.47-23.39 23.39-23.39s23.39 10.47 23.39 23.39v87.1c0 12.92-10.47 23.39-23.39 23.39z"/></g></svg>