<svg viewBox="0 0 1024 1024" xmlns="http://www.w3.org/2000/svg"><path d="m621.83 775.02c-3.46-13.24-16.05-21.84-29.67-20.54-6.37.61-13.43 1.1-20.62 1.32-25.7.79-39.14 1.09-57.73-.96-14.31-1.57-27.47 8.07-30.23 22.2-3.1 15.86 7.97 31.17 24.03 32.86 12.53 1.32 25.11 2.17 37.72 2.49 17.82.45 35.58-.03 53.2-2.07 16.67-1.93 27.73-18.3 23.49-34.54l-.2-.76zm63.67-114.46c-5.37-12.32-19.44-18.17-32.62-15.55-22.77 4.52-45.84 7.22-69.09 8.65-53.17 3.27-105.94.37-158.35-7.82-14.22-2.22-27.81 6.7-31.58 20.59-4.31 15.88 5.69 32.08 21.83 35.29 7.49 1.49 15.73 2.96 24.12 4.09 43.9 4.36 54.94 4.31 97.47 4.64 43.3.33 86.15-3.02 128.43-11.43 17.1-3.4 26.98-21.97 19.79-38.46zm60.94-118.99c-4.24-14.97-19.92-23.56-34.82-19.07l-25.28 7.62c-63.09 20.43-107.89 21.14-179.72 19.99-43.82-.7-87.28-4.84-130.32-12.52-14.16-2.53-27.85 6.39-31.55 20.3-4.11 15.47 5.62 31.23 21.3 34.45l2.33.48c27.83 4.27 55.72 7.85 83.81 10.08 54.6 4.34 109.08 3.73 163.44-3.04 38.36-4.78 76.06-12.37 112.75-24.21 14.2-4.58 22.13-19.72 18.07-34.07zm-465.74-170.26c25.12-21.05 54.43-34.65 84.59-46.44 67.33-26.32 137.45-41.41 208.99-50.14 70.42-8.58 140.85-11.78 211.13-2 14.81 2.06 28.62-7.82 31.3-22.54 2.82-15.52-7.77-30.43-23.39-32.61-29.8-4.17-59.82-5.99-89.94-6.12-89.52-.39-177.78 10.25-264.62 32.15-53.58 13.51-105.75 30.91-154.21 58.01-22.29 12.47-43 27.1-59.08 47.3-15.06 18.93-22.75 40.05-16.36 64.43 5.67 21.65 20.43 36.17 38.8 47.5 26.16 16.13 55.34 24.05 85.08 29.81 52.59 10.18 105.79 11.97 159.17 9.76 68.76-2.84 136.81-10.5 202.51-32.41 28.38-9.47 55.41-21.59 78.07-41.9 31.14-27.91 26.87-69.4-9.48-90.08-13.19-7.5-27.36-12.25-42.12-15.33-29.65-6.18-59.67-7.61-89.82-6.8-74.55 2-148.14 18.55-216.6 48.12-.43.19-.87.37-1.3.56-12.25 5.32-8.66 23.62 4.69 24.03l32.29 1c28.87.9 57.85-.97 86.12-6.9 46.89-9.84 94.39-13.66 142.67-10.05 17.09 1.28 33.97 3.88 50.02 10.22 2.19.87 5.83 1.13 5.89 3.92.01.55-.33 1.12-.86 1.7-4.03 4.43-9.13 7.82-14.43 10.6-50.42 26.47-105.36 36.32-160.95 42.92a830.017 830.017 0 0 1 -143.85 4.51c-38.61-2.15-76.95-6.42-113.71-19.47-12.42-4.41-24.4-9.73-34.13-19.04-4.92-4.7-6.25-9.73-2.66-16.09 4.16-7.39 9.84-13.32 16.21-18.66z" fill="#fff"/></svg>