<svg viewBox="0 0 1024 1024" xmlns="http://www.w3.org/2000/svg"><g fill="#fff"><path d="m496.79 441.23h-295.22c-12.92 0-23.39-10.47-23.39-23.39s10.47-23.39 23.39-23.39h295.22c31.51 0 57.14-25.63 57.14-57.13s-25.63-57.14-57.14-57.14h-1.64c-31.5 0-57.13 25.63-57.13 57.14 0 12.92-10.47 23.39-23.39 23.39s-23.39-10.47-23.39-23.39c0-57.29 46.61-103.91 103.9-103.91h1.64c57.29 0 103.91 46.62 103.91 103.91s-46.62 103.9-103.91 103.9z"/><path d="m741.91 536.63h-280.77c-12.92 0-23.39-10.47-23.39-23.39s10.47-23.39 23.39-23.39h280.77c31.51 0 57.14-25.63 57.14-57.14s-25.63-57.14-57.14-57.14h-1.64c-31.51 0-57.14 25.63-57.14 57.14 0 12.92-10.47 23.39-23.39 23.39s-23.39-10.47-23.39-23.39c0-57.29 46.62-103.91 103.91-103.91h1.64c57.29 0 103.91 46.62 103.91 103.91s-46.62 103.91-103.91 103.91zm-109.4 253.95h-1.64c-57.29 0-103.91-46.61-103.91-103.9 0-12.92 10.47-23.39 23.39-23.39s23.39 10.47 23.39 23.39c0 31.5 25.63 57.13 57.14 57.13h1.64c31.51 0 57.14-25.63 57.14-57.13s-25.63-57.14-57.14-57.14h-406.39c-12.92 0-23.39-10.47-23.39-23.39s10.47-23.39 23.39-23.39h406.37c57.29 0 103.91 46.62 103.91 103.91s-46.62 103.9-103.91 103.9z"/></g></svg>